<?xml version="1.0" encoding="UTF-8"?>
<svg version="1.1" xmlns="http://www.w3.org/2000/svg" width="16" height="16">
<path d="M0 0 C5.28 0 10.56 0 16 0 C16 5.28 16 10.56 16 16 C10.72 16 5.44 16 0 16 C0 10.72 0 5.44 0 0 Z " fill="#65BA54" transform="translate(0,0)"/>
<path d="M0 0 C1.98 0 3.96 0 6 0 C6 0.66 6 1.32 6 2 C7.32 2 8.64 2 10 2 C9.67 3.98 9.34 5.96 9 8 C8.01 8.33 7.02 8.66 6 9 C5.67 7.68 5.34 6.36 5 5 C3.68 5 2.36 5 1 5 C0.67 6.32 0.34 7.64 0 9 C-0.66 9 -1.32 9 -2 9 C-4 6 -4 6 -4 2 C-3.34 2 -2.68 2 -2 2 C-2 2.99 -2 3.98 -2 5 C-1.34 5 -0.68 5 0 5 C0 4.34 0 3.68 0 3 C1.65 3 3.3 3 5 3 C5 2.34 5 1.68 5 1 C3.35 1 1.7 1 0 1 C0 0.67 0 0.34 0 0 Z " fill="#267458" transform="translate(5,6)"/>
<path d="M0 0 C0.33 0 0.66 0 1 0 C1 3.3 1 6.6 1 10 C-4.28 10 -9.56 10 -15 10 C-15 8.02 -15 6.04 -15 4 C-13.5 5.375 -13.5 5.375 -12 7 C-12 7.66 -12 8.32 -12 9 C-11.34 9 -10.68 9 -10 9 C-9.67 7.68 -9.34 6.36 -9 5 C-7.68 5 -6.36 5 -5 5 C-4.67 6.32 -4.34 7.64 -4 9 C-1.82961523 8.20700294 -1.82961523 8.20700294 -1.3671875 6.15234375 C-1.20476563 5.42144531 -1.04234375 4.69054687 -0.875 3.9375 C-0.70742187 3.20402344 -0.53984375 2.47054688 -0.3671875 1.71484375 C-0.24601563 1.14894531 -0.12484375 0.58304687 0 0 Z " fill="#4FE376" transform="translate(15,6)"/>
<path d="M0 0 C5.28 0 10.56 0 16 0 C16 1.98 16 3.96 16 6 C15.54625 5.505 15.0925 5.01 14.625 4.5 C13.12364481 2.77390663 13.12364481 2.77390663 11 3 C10.67 3.66 10.34 4.32 10 5 C8.68 5 7.36 5 6 5 C5.67 4.34 5.34 3.68 5 3 C3.35 3.66 1.7 4.32 0 5 C0 3.35 0 1.7 0 0 Z " fill="#A6F042" transform="translate(0,0)"/>
<path d="M0 0 C0.99 0.33 1.98 0.66 3 1 C3 1.66 3 2.32 3 3 C4.32 3 5.64 3 7 3 C7.33 2.01 7.66 1.02 8 0 C8.99 0.33 9.98 0.66 11 1 C11.33 2.65 11.66 4.3 12 6 C10.68 6 9.36 6 8 6 C8 5.34 8 4.68 8 4 C6.02 4 4.04 4 2 4 C1.34 2.68 0.68 1.36 0 0 Z " fill="#689745" transform="translate(3,2)"/>
<path d="M0 0 C1.32 0 2.64 0 4 0 C3.67 1.98 3.34 3.96 3 6 C2.01 6.33 1.02 6.66 0 7 C0 4.69 0 2.38 0 0 Z " fill="#349761" transform="translate(11,8)"/>
</svg>
